<?xml version="1.0" standalone="no"?>
<!DOCTYPE svg PUBLIC "-//W3C//DTD SVG 20010904//EN"
  "http://www.w3.org/TR/2001/REC-SVG-20010904/DTD/svg10.dtd">
<svg width="128" height="128">
<g style="">
<g style="fill:#030303;stroke:none;" transform="matrix(0.1 0 0 -0.1 0 300)">
<g style="fill:rgb(255, 255, 255);" transform="matrix(0.1 0 0 -0.1 0 300)">
  <path d="M1526 2694 c-223 -54 -386 -263 -386 -494 0 -140 50 -262 149 -360 102 -102 218 -150 357 -150 146 0 258 46 359 145 72 70 109 133 136 230 103 374 -235 721 -615 629z"/>
</g>
<g style="fill:rgb(255, 255, 255);" transform="matrix(0.1 0 0 -0.1 0 300)">
  <path d="M1249 1616 c-150 -45 -278 -138 -360 -263 -101 -152 -119 -249 -119 -636 l0 -267 23 -9 c192 -77 639 -151 911 -151 276 0 610 62 776 143 l45 22 -1 320 c-1 316 -1 321 -27 400 -73 223 -237 382 -458 444 -70 19 -98 21 -395 20 -302 0 -323 -2 -395 -23z m549 -100 c5 -22 -75 -194 -98 -213 -9 -8 -10 -12 -3 -13 13 0 13 -1 57 -620 4 -51 1 -60 -43 -127 -25 -40 -51 -75 -57 -77 -6 -2 -31 30 -56 72 l-45 77 13 225 c17 289 32 443 45 451 6 3 3 11 -7 19 -9 8 -36 56 -60 108 -59 125 -60 123 115 120 125 -3 136 -4 139 -22z"/>
</g>
</g>
<g style="fill:#9E9E9E;stroke:none;" transform="matrix(0.1 0 0 -0.1 0 300)">
<g style="fill:rgb(255, 255, 255);" transform="matrix(0.1 0 0 -0.1 0 300)">
  <path d="M1511 1526 c-9 -11 -2 -33 33 -108 24 -52 51 -100 60 -108 10 -8 13 -16 7 -19 -13 -8 -28 -162 -45 -451 l-13 -225 45 -77 c25 -42 50 -74 56 -72 6 2 32 37 57 77 44 67 47 76 43 127 -44 619 -44 620 -57 620 -7 1 -6 5 3 13 23 19 103 191 98 213 -3 18 -14 19 -139 22 -108 2 -139 0 -148 -12z"/>
</g>
</g>
</g>
</svg>
